<svg viewBox="0 0 72 72" xmlns="http://www.w3.org/2000/svg"><path d="m35.7965 14.7599-11.1629 1.4089-4.1292 5-5.4167 7.8286-3.9501 10.0016.46 8.3969s.6101 5.4808 4.4251 7.2518 4.4817 3.8544 4.4817 3.8544 12.7412 3.4167 15.4956 2.9167 14.421-1.8333 16.5877-3.4167c2.1667-1.5833 4.8333-4.2322 4.8333-4.2322l3.5473-7.8884-.9862-9.2665-2.8944-10.2796s-5.25-5.925-5.5-6.3792-6.1667-3.5271-6.1667-3.5271z" fill="#fff"/><path d="m26.6294 19.5855-3.3333 3-5.5 2.7083-4.0417 6.2917-3.3333-2.3333-4-9.3333s1.8333-5.6667 2.3333-6.1667 5-3 5-3l5.1667 1.1667z" fill="#3f3f3f"/><path d="m45.296 19.5438 3.8936 3.2933 5.8564 3.1234 3.0417 5.625 3.3333-2.3333 4-9.3333s-1.8333-5.6667-2.3333-6.1667-5-3-5-3l-5.1667 1.1667z" fill="#3f3f3f"/><path d="m34.7544 41.0021s-3 5.8333-6.1667 5.6667c-3.1667-.1667-6.4167-1.4167-6.4167-1.4167l-1.6667-4.0833 1.5-3.3333 2.3333-2.5 3.0833-1.3333 4-.0833 1.4167 1.4167z" fill="#3f3f3f"/><path d="m37.3377 41.0021s3 5.8333 6.1667 5.6667c3.1667-.1667 6.4167-1.4167 6.4167-1.4167l1.6667-4.0833-1.5-3.3333-2.3333-2.5-3.0833-1.3333-4-.0833-1.4167 1.4167z" fill="#3f3f3f"/><path d="m31.5252 46.8355s4.9375-2.1875 8.8125.0625l-.75 2.4375-6.3125.5z" fill="#3f3f3f"/><circle cx="28.6022" cy="38.999" r="2"/><path d="m35.9683 49.1352s-4.0706 1.7971-4.172-1.2109" style="fill:none;stroke:#000;stroke-linecap:round;stroke-linejoin:round;stroke-miterlimit:10;stroke-width:2"/><path d="m25.9772 18.8949s-7.6875-11.625-14.9375-6.8125c-6.6011 4.3818-3.9113 13.9584.603 16.915" style="fill:none;stroke:#000;stroke-linecap:round;stroke-linejoin:round;stroke-miterlimit:10;stroke-width:2"/><path d="m21.0397 57.5824c-15.9375-6.3125-7.8506-24.0133-7.8506-24.0133s3.645-9.3586 9.3416-11.6086" style="fill:none;stroke:#000;stroke-linecap:round;stroke-linejoin:round;stroke-miterlimit:10;stroke-width:2"/><path d="m51.0661 57.5824c15.9375-6.3125 7.8506-24.0133 7.8506-24.0133s-3.645-9.3586-9.3416-11.6086" style="fill:none;stroke:#000;stroke-linecap:round;stroke-linejoin:round;stroke-miterlimit:10;stroke-width:2"/><circle cx="43.3344" cy="38.999" r="2"/><g style="fill:none;stroke:#000;stroke-linecap:round;stroke-linejoin:round;stroke-miterlimit:10;stroke-width:2"><path d="m44.6566 51.5312c-1.2194 1.924-4.0542 5.1185-8.2597 2.2386h-.8572c-4.2055 2.8798-7.0402-.3147-8.2597-2.2386"/><path d="m35.9683 49.1352s4.0706 1.7971 4.172-1.2109"/><path d="m45.9594 18.8949s7.6875-11.625 14.9375-6.8125c6.6011 4.3818 3.9113 13.9584-.603 16.915"/><path d="m24.6335 16.9512s8.7098-4.9304 22.3259 0"/><path d="m30.6022 59.5824c3.5914 1.2214 7.1689 1.2311 10.7321 0"/><path d="m35.9683 49.1352.0317 4.6347"/><path d="m43.9375 45.8355s7.3693 1.6133 7.4134-4.2067c.0229-3.021-1.8972-5.6794-4.6072-7.0147-3.522-1.7354-8.4313-2.5763-8.4313 6.2213"/><path d="m28.2573 45.8355s-7.3692 1.6133-7.4134-4.2067c-.0229-3.021 1.8972-5.6794 4.6072-7.0147 3.522-1.7354 8.4312-2.5763 8.4312 6.2213"/></g></svg>